<svg width="50" height="50" viewBox="0 0 50 50" fill="none" xmlns="http://www.w3.org/2000/svg">
<path d="M46.9444 50L28.6806 31.7361C27.2917 32.9398 25.6713 33.8773 23.8194 34.5486C21.9676 35.2199 20 35.5556 17.9167 35.5556C12.9167 35.5556 8.68055 33.8194 5.20833 30.3472C1.73611 26.875 0 22.6852 0 17.7778C0 12.8704 1.73611 8.68056 5.20833 5.20833C8.68055 1.73611 12.8935 0 17.8472 0C22.7546 0 26.9329 1.73611 30.3819 5.20833C33.831 8.68056 35.5556 12.8704 35.5556 17.7778C35.5556 19.7685 35.2315 21.6898 34.5833 23.5417C33.9352 25.3935 32.963 27.1296 31.6667 28.75L50 46.9444L46.9444 50ZM17.8472 31.3889C21.5972 31.3889 24.7917 30.0579 27.4306 27.3958C30.0694 24.7338 31.3889 21.5278 31.3889 17.7778C31.3889 14.0278 30.0694 10.8218 27.4306 8.15972C24.7917 5.49768 21.5972 4.16667 17.8472 4.16667C14.0509 4.16667 10.8218 5.49768 8.15972 8.15972C5.49768 10.8218 4.16667 14.0278 4.16667 17.7778C4.16667 21.5278 5.49768 24.7338 8.15972 27.3958C10.8218 30.0579 14.0509 31.3889 17.8472 31.3889Z" fill="#ADADAD"/>
</svg>
